# xmcd
#
# Track frame offsets:
#	225
#	19767
#	36376
#	48428
#	63534
#	81921
#	100594
#	123354
#	132941
#	145419
#	158421
#	171385
#	190854
#	206151
#
# Disc length: 2790 seconds
#
# Revision: 0
# Processed by: cddbd v1.5.1PL2 Copyright (c) Steve Scherf et al.
# Submitted via: dBpowerAMP V4.0
#
DISCID=c60ae30e
DTITLE=Kenny Lavitz - Too Many Hats
DYEAR=2005
DGENRE=Blues
TTITLE0=Down in the Bayou
TTITLE1=Frogs Feet
TTITLE2=No Lake
TTITLE3=Stumblin
TTITLE4=Religion of the Rhythm
TTITLE5=Low Blood Brothers
TTITLE6=Thru the Night
TTITLE7=Birdscraps
TTITLE8=Fried Fish
TTITLE9=Out of My Head
TTITLE10=Another Day
TTITLE11=Conversation
TTITLE12=Going Fishing
TTITLE13=Talk
EXTD=
EXTT0=
EXTT1=
EXTT2=
EXTT3=
EXTT4=
EXTT5=
EXTT6=
EXTT7=
EXTT8=
EXTT9=
EXTT10=
EXTT11=
EXTT12=
EXTT13=
PLAYORDER=
